# xmcd CD database file
#
# Track frame offsets:
#	150
#	14383
#	30770
#	42713
#	52050
#	62310
#	71925
#	79893
#	89180
#	101005
#	115303
#	125695
#	133680
#	140793
#	149740
#	159098
#	171263
#	181078
#
# Disc length: 2598 seconds
#
# Revision: 1
# Processed by: cddbd v1.5.2PL0 Copyright (c) Steve Scherf et al.
# Submitted via: CDex 1.70beta3
#
DISCID=0e0a2412
DTITLE=Missa Johnouchi - 3nen Bgumi Kinpachi Sensei OST
DYEAR=2005
DGENRE=New Age
TTITLE0=Il Pleure dans mon c [oe] ur ([irupuriyudonmonkeru]) rain of ~ heart (insertion song)
TTITLE1=Road
TTITLE2=Sound of wind
TTITLE3=Boy 3 of glass, wandering
TTITLE4=When becoming saint,
TTITLE5=When becoming saint,2
TTITLE6=Il Pleure dans mon c [oe] ur Arrange1
TTITLE7=In the evening sun
TTITLE8=Sign
TTITLE9=Pure (insertion song)
TTITLE10=Crowd
TTITLE11=Escape
TTITLE12=Greeting in morning
TTITLE13=Crime and punishment
TTITLE14=Loneliness
TTITLE15=Insecure night
TTITLE16=Morning of rain
TTITLE17=Boy 3~Il of glass Pleure dans mon c [oe] ur (piano version)
EXTD=YEAR: 2005
EXTT0=
EXTT1=
EXTT2=
EXTT3=
EXTT4=
EXTT5=
EXTT6=
EXTT7=
EXTT8=
EXTT9=
EXTT10=
EXTT11=
EXTT12=
EXTT13=
EXTT14=
EXTT15=
EXTT16=
EXTT17=
PLAYORDER=
